<?xml version="1.0" encoding="UTF-8"?>
<svg width="276px" height="33px" viewBox="0 0 276 33" version="1.1" xmlns="http://www.w3.org/2000/svg" xmlns:xlink="http://www.w3.org/1999/xlink">
    <!-- Generator: Sketch 49 (51002) - http://www.bohemiancoding.com/sketch -->
    <title>logotype-full</title>
    <desc>Created with Sketch.</desc>
    <defs></defs>
    <g id="logotype-full" stroke="none" stroke-width="1" fill="none" fill-rule="evenodd">
        <g id="minilogo-ny-forsberg">
            <g id="Group" fill="#000000" fill-rule="nonzero">
                <path d="M0,18.650495 L0,13.4584158 C1.09306931,15.849505 3.14257426,17.9673267 6.28514851,17.9673267 C8.53960396,17.9673267 9.83762376,16.6009901 9.83762376,14.7564356 C9.83762376,13.2534653 8.94950495,12.4336634 6.6950495,11.750495 L5.3970297,11.3405941 C3.21089109,10.6574257 0.204950495,9.7009901 0.204950495,5.87524752 C0.204950495,2.11782178 3.41584158,0.273267327 7.03663366,0.273267327 C8.47128713,0.273267327 10.7257426,0.683168317 11.8871287,1.09306931 L12.3653465,5.73861386 C11.1356436,3.48415842 9.08613861,2.04950495 6.55841584,2.04950495 C5.05544554,2.04950495 3.41584158,2.93762376 3.41584158,4.85049505 C3.41584158,6.35346535 4.50891089,6.9 6.42178218,7.51485149 L7.51485149,7.85643564 C9.22277228,8.4029703 10.3841584,8.81287129 11.4089109,9.63267327 C12.570297,10.5207921 13.1851485,11.8871287 13.1851485,13.5950495 C13.1851485,17.8306931 9.97425743,19.7435644 6.14851485,19.7435644 C3.89405941,19.8118812 1.70792079,19.4019802 0,18.650495 Z" id="Shape"></path>
                <path d="M30.8108911,0.683168317 C29.9227723,1.02475248 29.3762376,1.63960396 28.8980198,2.8009901 L21.7247525,19.880198 L21.519802,19.880198 L14.6881188,3.07425743 C14.209901,1.84455446 13.6633663,1.02475248 13.0485149,0.683168317 L20.0168317,0.683168317 C19.3336634,1.02475248 18.5821782,1.84455446 19.3336634,3.82574257 L22.6811881,12.2970297 L26.3019802,3.34752475 C26.9168317,1.84455446 26.4386139,1.09306931 25.8237624,0.683168317 L30.8108911,0.683168317 Z" id="Shape"></path>
                <path d="M31.6990099,19.2653465 C32.3138614,18.9920792 33.1336634,18.1039604 33.1336634,17.0792079 L33.1336634,2.86930693 C33.1336634,1.91287129 32.3138614,0.956435644 31.6990099,0.683168317 L44.0643564,0.683168317 L44.0643564,5.46534653 C43.5178218,4.23564356 42.9029703,2.52772277 39.8970297,2.52772277 L37.0960396,2.52772277 L37.0960396,8.60792079 L40.170297,8.60792079 C41.809901,8.60792079 42.6980198,7.65148515 43.2445545,6.83168317 L43.2445545,12.160396 C42.7663366,11.3405941 41.809901,10.4524752 40.170297,10.4524752 L37.0960396,10.4524752 L37.0960396,15.6445545 C37.0960396,17.2158416 38.0524752,17.7623762 40.0336634,17.7623762 C42.5613861,17.7623762 43.7227723,16.6009901 45.1574257,14.1415842 L45.2257426,14.1415842 L44.5425743,19.3336634 L31.6990099,19.2653465 Z" id="Shape"></path>
                <path d="M64.0128713,0.683168317 C63.3980198,0.956435644 62.6465347,1.91287129 62.6465347,2.86930693 L62.6465347,19.9485149 L62.509901,19.9485149 L50.6910891,5.67029703 L50.6910891,17.1475248 C50.6910891,18.1039604 51.3059406,18.9237624 51.8524752,19.3336634 L46.9336634,19.3336634 C47.5485149,18.9237624 48.3,18.1722772 48.3,17.1475248 L48.3,4.23564356 C48.3,2.66435644 47.3435644,1.2980198 46.3188119,0.683168317 L51.5792079,0.683168317 L60.1871287,11.2039604 L60.1871287,2.86930693 C60.1871287,1.84455446 59.3673267,0.956435644 58.8207921,0.683168317 L64.0128713,0.683168317 Z" id="Shape"></path>
                <path d="M65.7891089,18.650495 L65.7891089,13.4584158 C66.8821782,15.849505 68.9316832,17.9673267 72.0742574,17.9673267 C74.3287129,17.9673267 75.6267327,16.6009901 75.6267327,14.7564356 C75.6267327,13.2534653 74.7386139,12.4336634 72.4841584,11.750495 L71.1861386,11.3405941 C69,10.6574257 65.9940594,9.7009901 65.9940594,5.87524752 C65.9940594,2.11782178 69.2049505,0.273267327 72.8257426,0.273267327 C74.260396,0.273267327 76.5148515,0.683168317 77.6762376,1.09306931 L78.1544554,5.73861386 C77.0613861,3.55247525 75.0118812,2.04950495 72.4841584,2.04950495 C70.9811881,2.04950495 69.409901,3.00594059 69.409901,4.91881188 C69.409901,6.42178218 70.5029703,6.96831683 72.4158416,7.58316832 L73.5089109,7.92475248 C75.2168317,8.47128713 76.3782178,8.88118812 77.4029703,9.7009901 C78.5643564,10.5891089 79.1792079,11.9554455 79.1792079,13.6633663 C79.1792079,17.8990099 75.9683168,19.8118812 72.1425743,19.8118812 C69.6831683,19.8118812 67.4970297,19.4019802 65.7891089,18.650495 Z" id="Shape"></path>
                <path d="M98.239604,19.2653465 L91.4762376,19.2653465 C91.8861386,18.9920792 91.8861386,18.2405941 91.339604,17.4891089 L85.8742574,9.35940594 L85.8742574,17.0792079 C85.8742574,18.0356436 86.6257426,18.9920792 87.2405941,19.2653465 L80.6138614,19.2653465 C81.2287129,18.9920792 81.980198,18.1039604 81.980198,17.0792079 L81.980198,2.86930693 C81.980198,1.91287129 81.2287129,0.956435644 80.6138614,0.683168317 L87.3089109,0.683168317 C86.6940594,0.956435644 85.9425743,1.84455446 85.9425743,2.86930693 L85.9425743,9.22277228 L91.6811881,3.00594059 C92.5693069,2.04950495 92.8425743,1.09306931 91.9544554,0.751485149 L97.4881188,0.751485149 C96.8049505,1.16138614 95.6435644,1.91287129 94.6188119,3.00594059 L89.5633663,8.33465347 L95.3019802,16.4643564 C96.4633663,17.9673267 97.4881188,18.9237624 98.239604,19.2653465 Z" id="Shape"></path>
                <path d="M116.070297,19.2653465 L109.511881,19.2653465 C109.921782,18.9237624 110.468317,18.1722772 109.853465,16.6693069 L109.238614,15.029703 L103.021782,15.029703 L102.270297,16.8742574 C101.655446,18.3089109 102.065347,18.7871287 102.611881,19.2653465 L98.239604,19.2653465 C98.7178218,19.060396 99.5376238,18.0356436 99.8792079,17.2158416 L107.052475,0 L107.189109,0 L114.157426,16.9425743 C114.70396,18.1722772 115.182178,18.9237624 116.070297,19.2653465 Z M108.487129,13.2534653 L106.09604,7.17326733 L103.70495,13.2534653 L108.487129,13.2534653 Z" id="Shape"></path>
                <path d="M140.117822,9.7009901 C140.117822,15.7811881 136.087129,19.3336634 130.758416,19.3336634 L121.740594,19.3336634 C122.355446,19.060396 123.106931,18.1722772 123.106931,17.1475248 L123.106931,2.86930693 C123.106931,1.91287129 122.355446,0.956435644 121.740594,0.683168317 L129.80198,0.683168317 C135.19901,0.683168317 140.117822,3.55247525 140.117822,9.7009901 Z M135.813861,10.3841584 C135.813861,5.53366337 133.217822,2.45940594 129.392079,2.45940594 C128.367327,2.45940594 127.752475,2.52772277 127.137624,2.73267327 L127.137624,15.7128713 C127.137624,16.9425743 127.752475,17.4891089 129.870297,17.4891089 C132.807921,17.5574257 135.813861,15.9861386 135.813861,10.3841584 Z" id="Shape"></path>
                <path d="M157.19703,19.2653465 L150.638614,19.2653465 C151.048515,18.9237624 151.59505,18.1722772 150.980198,16.6693069 L150.29703,15.029703 L144.080198,15.029703 L143.328713,16.8742574 C142.713861,18.3089109 143.123762,18.7871287 143.670297,19.2653465 L139.29802,19.2653465 C139.776238,19.060396 140.59604,18.0356436 140.937624,17.2158416 L148.110891,0 L148.247525,0 L155.215842,16.9425743 C155.762376,18.1722772 156.308911,18.9237624 157.19703,19.2653465 Z M149.613861,13.2534653 L147.222772,7.17326733 L144.831683,13.2534653 L149.613861,13.2534653 Z" id="Shape"></path>
                <path d="M173.319802,1.43465347 L173.319802,6.42178218 L173.251485,6.42178218 C172.158416,4.03069307 170.313861,2.11782178 166.829703,2.11782178 C163.140594,2.11782178 160.681188,5.53366337 160.681188,10.3158416 C160.681188,14.7564356 163.277228,17.8306931 166.556436,17.8306931 C168.332673,17.8306931 169.767327,17.2158416 169.767327,15.9861386 L169.767327,13.2534653 C169.767327,12.2970297 168.879208,11.3405941 168.332673,11.0673267 L175.027723,11.0673267 C174.412871,11.3405941 173.729703,12.2970297 173.729703,13.2534653 L173.729703,18.1039604 C171.543564,19.060396 168.879208,19.8118812 166.283168,19.8118812 C160.544554,19.8118812 156.308911,15.5762376 156.308911,10.1108911 C156.308911,4.03069307 161.091089,0.273267327 166.693069,0.273267327 C169.015842,0.273267327 171.680198,0.81980198 173.319802,1.43465347 Z" id="Shape"></path>
                <path d="M191.423762,14.2782178 C191.423762,17.6940594 189.169307,19.2653465 185.480198,19.2653465 L176.325743,19.2653465 C176.940594,18.9920792 177.760396,18.1039604 177.760396,17.0792079 L177.760396,2.86930693 C177.760396,1.91287129 176.940594,0.956435644 176.325743,0.683168317 L184.933663,0.683168317 C188.349505,0.683168317 190.672277,2.52772277 190.672277,5.32871287 C190.672277,7.65148515 189.10099,8.94950495 187.324752,9.56435644 C189.579208,10.1792079 191.423762,11.750495 191.423762,14.2782178 Z M181.654455,8.74455446 L183.430693,8.74455446 C186.231683,8.74455446 186.914851,7.24158416 186.914851,5.73861386 C186.914851,3.07425743 185.00198,2.45940594 182.952475,2.45940594 C182.474257,2.45940594 181.859406,2.52772277 181.586139,2.5960396 L181.586139,8.74455446 L181.654455,8.74455446 Z M187.324752,14.2782178 C187.324752,12.4336634 186.231683,10.5891089 183.70396,10.5891089 L181.654455,10.5891089 L181.654455,15.7811881 C181.654455,17.2841584 182.405941,17.6940594 184.045545,17.6940594 C186.026733,17.6940594 187.324752,16.6009901 187.324752,14.2782178 Z" id="Shape"></path>
                <path d="M193.268317,19.2653465 C193.883168,18.9920792 194.634653,18.1039604 194.634653,17.0792079 L194.634653,2.86930693 C194.634653,1.91287129 193.883168,0.956435644 193.268317,0.683168317 L199.963366,0.683168317 C199.348515,0.956435644 198.59703,1.84455446 198.59703,2.86930693 L198.59703,15.7128713 C198.59703,17.0792079 198.938614,17.6940594 201.193069,17.6940594 C203.242574,17.6940594 204.608911,16.6009901 206.043564,14.0049505 L206.111881,14.0049505 L205.428713,19.3336634 L193.268317,19.2653465 Z" id="Shape"></path>
                <path d="M224.420792,19.2653465 L217.862376,19.2653465 C218.272277,18.9237624 218.818812,18.1722772 218.20396,16.6693069 L217.589109,15.029703 L211.372277,15.029703 L210.620792,16.8742574 C210.005941,18.3089109 210.415842,18.7871287 210.962376,19.2653465 L206.590099,19.2653465 C207.068317,19.060396 207.888119,18.0356436 208.229703,17.2158416 L215.40297,0 L215.539604,0 L222.507921,16.9425743 C223.054455,18.1722772 223.532673,18.9237624 224.420792,19.2653465 Z M216.837624,13.2534653 L214.446535,7.17326733 L212.055446,13.2534653 L216.837624,13.2534653 Z" id="Shape"></path>
                <path d="M243.686139,9.7009901 C243.686139,15.7811881 239.655446,19.3336634 234.326733,19.3336634 L225.308911,19.3336634 C225.923762,19.060396 226.675248,18.1722772 226.675248,17.1475248 L226.675248,2.86930693 C226.675248,1.91287129 225.923762,0.956435644 225.308911,0.683168317 L233.370297,0.683168317 C238.767327,0.683168317 243.686139,3.55247525 243.686139,9.7009901 Z M239.382178,10.3841584 C239.382178,5.53366337 236.786139,2.45940594 232.960396,2.45940594 C231.935644,2.45940594 231.320792,2.52772277 230.705941,2.73267327 L230.705941,15.7128713 C230.705941,16.9425743 231.320792,17.4891089 233.438614,17.4891089 C236.376238,17.5574257 239.382178,15.9861386 239.382178,10.3841584 Z" id="Shape"></path>
                <path d="M245.462376,19.2653465 C246.077228,18.9920792 246.89703,18.1039604 246.89703,17.0792079 L246.89703,2.86930693 C246.89703,1.91287129 246.077228,0.956435644 245.462376,0.683168317 L257.827723,0.683168317 L257.827723,5.46534653 C257.281188,4.23564356 256.666337,2.52772277 253.660396,2.52772277 L250.859406,2.52772277 L250.859406,8.60792079 L253.933663,8.60792079 C255.573267,8.60792079 256.461386,7.65148515 257.007921,6.83168317 L257.007921,12.160396 C256.529703,11.3405941 255.573267,10.4524752 253.933663,10.4524752 L250.859406,10.4524752 L250.859406,15.6445545 C250.859406,17.2158416 251.815842,17.7623762 253.79703,17.7623762 C256.324752,17.7623762 257.486139,16.6009901 258.920792,14.1415842 L258.989109,14.1415842 L258.305941,19.3336634 L245.462376,19.2653465 Z" id="Shape"></path>
                <path d="M264.522772,19.2653465 C265.137624,18.9920792 265.889109,18.0356436 265.889109,17.0792079 L265.889109,2.5960396 L264.727723,2.5960396 C262.2,2.5960396 261.175248,3.75742574 260.355446,5.6019802 L260.560396,0.683168317 L275.316832,0.683168317 L275.521782,5.6019802 C274.70198,3.89405941 273.813861,2.5960396 271.149505,2.5960396 L269.851485,2.5960396 L269.851485,17.1475248 C269.851485,18.1039604 270.60297,19.060396 271.217822,19.3336634 L264.522772,19.2653465 Z" id="Shape"></path>
            </g>
            <rect id="linje" fill="#446CAE" x="0" y="28.009901" width="275.630005" height="4.78217822"></rect>
        </g>
    </g>
</svg>